<svg xmlns="http://www.w3.org/2000/svg" width="108.091" height="91.461" viewBox="0 0 108.091 91.461">
  <g id="quote-left" transform="translate(0 -36.545)">
    <g id="Group_78" data-name="Group 78" transform="translate(0 36.545)">
      <path id="Path_57" data-name="Path 57" d="M37.416,78.119H22.865a6.21,6.21,0,0,1-6.237-6.237V69.8A16.022,16.022,0,0,1,21.5,58.047a16.025,16.025,0,0,1,11.758-4.871h4.157a4.215,4.215,0,0,0,4.157-4.157V40.7a4.215,4.215,0,0,0-4.157-4.158H33.259a32.41,32.41,0,0,0-12.894,2.631A32.944,32.944,0,0,0,2.631,56.91,32.4,32.4,0,0,0,0,69.8v45.73a12.028,12.028,0,0,0,3.637,8.836,12.031,12.031,0,0,0,8.835,3.637H37.417a12.418,12.418,0,0,0,12.472-12.472V90.591A12.422,12.422,0,0,0,37.416,78.119Z" transform="translate(0 -36.545)" fill="#fff"/>
      <path id="Path_58" data-name="Path 58" d="M302.071,81.756a12.027,12.027,0,0,0-8.834-3.637H278.686a6.21,6.21,0,0,1-6.235-6.237V69.8a16.632,16.632,0,0,1,16.63-16.629h4.156a4.216,4.216,0,0,0,4.158-4.157V40.7a4.216,4.216,0,0,0-4.158-4.158h-4.156a32.419,32.419,0,0,0-12.9,2.631A32.954,32.954,0,0,0,258.451,56.91,32.408,32.408,0,0,0,255.82,69.8v45.73a12.418,12.418,0,0,0,12.472,12.472h24.944a12.417,12.417,0,0,0,12.471-12.472V90.591A12.026,12.026,0,0,0,302.071,81.756Z" transform="translate(-197.616 -36.545)" fill="#fff"/>
    </g>
  </g>
</svg>
